<?xml version="1.0" encoding="UTF-8" standalone="no"?><!DOCTYPE svg PUBLIC "-//W3C//DTD SVG 1.1//EN" "http://www.w3.org/Graphics/SVG/1.1/DTD/svg11.dtd"><svg width="100%" height="100%" viewBox="0 0 1922 3364" version="1.1" xmlns="http://www.w3.org/2000/svg" xmlns:xlink="http://www.w3.org/1999/xlink" xml:space="preserve" xmlns:serif="http://www.serif.com/" style="fill-rule:evenodd;clip-rule:evenodd;stroke-linejoin:round;stroke-miterlimit:2;"><path d="M872.209,-0l183.969,0c0.787,1.52 -0.973,3.612 -0.186,5.132c1.322,2.553 55.314,5.872 56.121,6.109c19.489,5.739 19.351,4.916 39.452,5.938c3.169,0.161 61.765,18.039 75.592,19.571c9.195,1.019 102.268,34.422 125.35,45.609c26.995,13.084 26.339,13.763 28.679,14.859c24.671,11.561 24.489,11.257 49.119,23.553c21.33,10.648 119.056,74.145 131.024,88.407c4.92,5.864 19.074,13.231 19.406,13.648c19.024,23.919 76.539,56.365 167.8,183.388c11.775,16.389 10.311,17.262 11.399,18.629c22.093,27.739 18.11,30.139 34.585,53.636c11.696,16.683 57.355,112.628 60.081,121.002c0.879,2.699 7.369,22.638 12.241,33.3c6.488,14.2 4.259,14.693 9.842,29.507c4.243,11.261 2.366,11.582 6.543,22.991c5.908,16.137 4.222,16.465 9.811,32.862c1.085,3.183 11.83,48.093 11.879,48.762c2.446,33.392 10.351,51.868 12.911,72.346c1.437,11.493 -1.384,11.467 0.538,22.952c0.268,1.6 3.18,1.835 3.448,3.436l0,1445.469c-0.267,1.607 -3.15,1.886 -3.417,3.492c-1.63,9.803 3.095,25.097 -3.703,46.01c-5.456,16.785 -9.498,54.3 -10.011,59.065c-0.248,2.3 -33.104,131.676 -64.265,193.198c-10.098,19.936 -10.842,29.744 -16.476,35.718c-8.772,9.301 -27.653,55.595 -37.274,64.552c-2.62,2.439 -2.907,9.907 -9.875,16.326c-1.81,1.667 0.845,3.484 -16.868,25.717c-5.243,6.581 -3.917,7.237 -9.768,13.286c-1.061,1.096 1.48,2.664 -10.005,16.232c-7.862,9.288 -4.713,11.782 -16.044,20.496c-4.426,3.404 0.024,7.264 -44.702,53.607c-12.942,13.409 -11.362,14.595 -24.696,27.821c-59.718,59.237 -62.934,55.276 -93.02,84.358c-14.767,14.273 -81.544,60.759 -113.877,77.335c-3.818,1.957 -2.996,3.189 -36.113,19.775c-39.891,19.978 -39.049,21.217 -43.873,23.98c-4.05,2.319 -13.425,1.462 -22.048,8.185c-7.727,6.024 -50.527,18.748 -51.962,20.224c-2.767,2.844 -3.191,1.936 -46.861,16.266c-16.125,5.291 -15.982,5.464 -29.634,6.976c-3.355,0.372 -20.24,8.795 -26.316,9.342c-12.072,1.085 -11.541,2.23 -23.043,5.833c-11.932,3.738 -33.234,4.282 -36.145,4.356c-1.662,0.042 -26.038,9.014 -72.321,9.974c-27.304,0.566 -50.389,5.699 -69.014,5.83c-73.799,0.521 -73.638,-2.469 -78.848,-2.594c-49.679,-1.197 -49.246,-4.533 -98.676,-6.994c-3.462,-0.172 -2.715,-2.6 -42.38,-9.036c-9.114,-1.479 -9.901,1.103 -17.124,-4.323c-6.06,-4.553 -29.098,-2.205 -39.429,-9.847c-3.467,-2.565 -4.981,2.301 -52.151,-13.663c-2.457,-0.832 -17.839,-6.037 -30.163,-11.913c-9.379,-4.472 -19.065,-3.113 -72.219,-29.489c-41.143,-20.416 -40.673,-20.524 -81.012,-41.866c-45.759,-24.209 -149.088,-100.816 -166.082,-122.836c-1.613,-2.09 -17.359,-14.293 -41.883,-40.003c-94.727,-99.307 -100.306,-128.559 -136.371,-175.471c-1.496,-1.946 -0.549,-2.353 -29.75,-58.731c-6.125,-11.824 -38.508,-74.346 -63.575,-153.837c-0.933,-2.96 -16.241,-70.314 -18.317,-73.231c-6.535,-9.182 2.455,-11.51 -11.215,-54.909c-1.055,-3.348 0.164,-17.397 -3.262,-29.582c-1.777,-6.321 -0.784,-6.31 -1.216,-23.032c-0.239,-9.249 -5.699,-8.776 -6.805,-9.882l0,-1435.613c6.246,-6.256 6.661,-5.988 6.736,-6.747c1.318,-13.298 0.856,-13.073 3.196,-26.233c0.397,-2.235 -0.926,-25.507 2.489,-32.3c7.337,-14.595 3.413,-42.755 10.077,-52.126c9.966,-14.014 1.867,-16.449 7.693,-33.965c8.147,-24.495 43.102,-174.322 152.914,-324.498c12.477,-17.063 13.936,-15.604 26.311,-32.831c13.745,-19.134 15.125,-17.609 29.55,-36.099c7.657,-9.815 75.654,-82.912 124.543,-117.995c2.609,-1.873 18.954,-13.601 31.827,-24.472c18.86,-15.927 20.179,-13.691 40.438,-28.09c25.417,-18.066 26.671,-15.897 28.574,-17.803c8.559,-8.577 54.758,-30.07 83.085,-44.53c28.859,-14.732 29.659,-13.053 31.902,-14.749c6.741,-5.096 18.63,-6.89 26.15,-10.497c13.341,-6.4 14,-4.278 27.37,-10.864c15.726,-7.747 16.776,-4.281 22.864,-6.773c24.171,-9.892 23.715,-10.144 25.853,-10.819c24.241,-7.646 24.631,-4.762 26.691,-5.475c40.778,-14.105 42.169,-9.237 45.174,-11.443c8.271,-6.074 38.267,-6.577 43.513,-8.271c25.879,-8.357 31.441,-4.539 68.511,-8.914l6.747,-6.713Zm17.557,182.269c-5.123,0.419 -10.891,0.915 -17.394,1.503c-13.036,1.179 -12.397,5.09 -42.709,6.322c-2.94,0.12 -2.127,3.041 -36.156,6.768c-2.153,0.236 -1.358,3.106 -26.249,6.622c-20.224,2.857 -18.965,7.53 -39.437,9.911c-2.226,0.259 -0.507,4.425 -26.261,9.747c-1.692,0.35 -1.16,0.897 -20.199,7.638c-16.167,5.725 -84.701,38.185 -87.41,41.254c-0.129,0.146 -41.177,21.07 -45.896,26.31c-4.027,4.471 -6.809,0.39 -61.095,43.878c-3.401,2.724 -14.867,5.039 -62.475,52.698c-13.957,13.972 -14.059,13.559 -28.135,27.719c-84.98,85.487 -153.228,217.051 -157.208,242.799c-1.353,8.754 -11.937,12.526 -16.443,42.669c-1.491,9.973 -8.513,10.957 -9.434,22.906c-1.7,22.05 -6.893,20.822 -10.265,42.802c-4.196,27.354 -11.027,26.151 -13.109,75.516c-0.124,2.935 -4.33,2.021 -6.608,36.126c-0.21,3.142 -2.652,5.774 -2.917,16.375c-2.546,101.819 -3.16,101.495 -3.16,203.621c0,259.087 -0.73,262.986 5.117,262.97c3.011,-0.008 42.243,-48.553 61.608,-60.587c1.214,-0.754 18.475,-17.376 20.063,-18.905c12.718,-12.246 14.192,-10.212 26.26,-22.989c3.586,-3.796 4.496,-2.651 50.671,-41.153c7.011,-5.846 16.538,-11.39 18.047,-12.268c13.015,-7.574 10.781,-10.46 24.227,-17.459c23.644,-12.307 21.014,-16.268 44.784,-28.597c1.965,-1.019 17.644,-13.268 33.198,-19.43c6.358,-2.519 27.664,-20.438 62.199,-33.349c0.501,-0.187 42.25,-20.941 45.922,-22.767c4.571,-2.272 35.546,-17.67 59.575,-22.846c12.977,-2.795 11.91,-9.002 42.778,-13.417c9.029,-1.291 7.265,-9.423 55.817,-16.413c17.142,-2.468 15.655,-8.099 32.889,-9.302c21.749,-1.518 21.133,-3.602 42.674,-6.941c18.081,-2.802 17.854,-3.191 36.265,-3.425c12.96,-0.165 11.982,-7.803 62.469,-6.555c5.81,0.144 5.731,-2.78 67.631,-3.007c2.538,-0.009 5.18,-0.014 7.931,-0.014c1.109,0 2.168,-0.008 3.185,-0.021c11.817,-0.151 17.848,-0.989 29.406,2.029c11.256,2.94 24.656,-3.51 59.135,6.484c3.55,1.029 3.854,-3.564 46.015,4.135c15.187,2.773 14.432,5.303 29.779,6.626c33.738,3.588 32.394,9.525 65.857,13.827c17.293,2.223 15.476,8.242 39.485,12.937c11.475,2.244 56.908,21.441 68.946,23.191c0.784,0.114 42.849,20.658 46.566,22.473c10.859,5.303 12.085,2.468 22.783,10.656c3.015,2.307 8.796,0.81 18.717,8.059c4.796,3.505 38.556,18.898 46.062,25.938c6.29,5.899 8.697,1.843 14.65,8.325c6.728,7.325 40.938,21.683 75.042,49.612c5.817,4.764 8.057,1.657 75.476,55.998c9.8,7.899 29.329,29.892 42.358,36.507c1.613,0.819 63.848,63.172 69.365,68.7c1.69,1.693 1.485,1.473 3.251,3.323c0.787,0.825 12.206,20.192 14.115,3.977c0.175,-1.486 -0.045,-383.259 0.121,-404.293c0.039,-4.998 -2.033,-4.839 -2.892,-62.41c-0.276,-18.504 -0.356,-18.384 -5.499,-36.071c-1.835,-6.31 2.088,-25.302 -8.786,-59.517c-1.136,-3.576 1.139,-3.892 -10.903,-45.614c-2.527,-8.757 2.125,-10.025 -5.219,-20.629c-1.358,-1.96 -13.007,-47.863 -18.241,-54.512c-8.151,-10.353 -1.113,-18.538 -17.93,-40.781c-4.518,-5.976 1.406,-9.003 -41.818,-83.795c-39.393,-68.165 -90.217,-124.612 -101.025,-134.958c-15.915,-15.233 -45.057,-50.401 -105.426,-94.578c-202.537,-148.215 -368.751,-148.069 -452.412,-157.065c-26.384,-2.837 -39.505,0.774 -42.809,1.683c-2.709,0.746 -3.949,0.449 -14.698,0.966c-5.918,0.285 -14.718,0.817 -28.233,1.906c-0.653,0.053 -1.316,0.106 -1.991,0.162Zm94.148,977.401c-62.589,-2.284 -62.413,-0.46 -124.721,5.859c-46.049,4.67 -45.874,3.616 -49.678,4.829c-19.212,6.126 -18.839,7.202 -39.094,8.722c-10.284,0.772 -13.665,5.333 -19.592,6.238c-10.297,1.573 -9.61,3.233 -19.785,5.804c-51.67,13.052 -69.814,18.528 -167.899,61.827c-2.343,1.034 -0.969,2.229 -3.232,3.351c-18.234,9.044 -17.833,9.545 -19.449,10.238c-13.762,5.902 -12.413,7.739 -13.625,8.114c-17.352,5.363 -30.253,17.368 -32.363,18.172c-3.21,1.222 -22.346,8.509 -36.615,22.428c-6.725,6.561 -9.469,2.284 -14.779,8.173c-13.838,15.346 -30.917,23.826 -33.952,25.333c-11.524,5.722 -9.813,7.886 -20.336,15.423c-16.153,11.569 -49.723,40.273 -51.268,41.398c-15.792,11.494 -14.853,12.507 -101.06,98.957c-26.169,26.243 -45.782,53.378 -47.076,54.723c-25.054,26.046 -10.79,31.391 12.465,58.853c3.718,4.391 44.198,52.195 47.165,54.302c13.56,9.629 10.99,12.017 22.625,23.751c10.788,10.881 11.781,9.276 22.847,19.844c40.278,38.468 41.363,37.27 44.422,41.017c10.356,12.685 12.555,10.018 24.558,21.388c12.462,11.805 54.8,41.432 57.753,44.192c6.551,6.12 91.687,58.686 92.419,59.067c6.056,3.148 75.686,39.346 75.696,39.349c2.65,0.977 32.067,11.818 33.002,12.541c7.969,6.163 88.138,33.779 92.399,34.409c19.414,2.872 17.99,6.417 19.637,6.601c41.87,4.663 40.429,10.975 82.094,16.625c69.37,9.406 69.735,5.774 75.549,7.53c20.784,6.28 21.598,-1.992 42.732,2.612c27.712,6.037 27.622,0.05 52.43,-0.232c33.582,-0.382 33.24,-3.364 36.141,-3.251c5.463,0.213 26.598,1.037 62.829,-4.832c4.119,-0.667 8.433,-1.421 12.941,-2.272c47.706,-9.004 48.49,-6.381 51.875,-8.885c10.986,-8.127 27.682,-5.05 39.263,-10.547c21.41,-10.163 24.781,-1.978 32.361,-9.683c1.155,-1.174 31.381,-12.493 33.83,-12.863c14.035,-2.122 12.815,-5.228 26.321,-9.184c15.912,-4.661 14.905,-6.829 16.278,-7.209c19.939,-5.527 18.032,-9.37 19.737,-9.822c22.309,-5.912 25.788,-10.52 36.252,-15.727c49.766,-24.759 48.101,-27.79 52.616,-29.494c16.044,-6.055 14.263,-8.952 29.515,-16.494c22.856,-11.303 73.642,-50.587 102.459,-71.274c9.902,-7.108 25.536,-22.399 26.31,-22.997c16.877,-13.051 42.851,-35.758 44.133,-37.829c5.708,-9.215 6.909,-7.897 14.639,-15.359c53.87,-51.998 51.319,-54.469 56.617,-58.231c11.804,-8.38 63.466,-71.714 62.252,-76.901c-0.091,-0.389 -11.204,-14.413 -11.711,-14.777c-17.312,-12.412 -13.004,-16.704 -22.631,-26.995c-30.288,-32.379 -30.518,-32.11 -33.307,-36.015c-8.092,-11.332 -9.256,-9.944 -19.043,-20.042c-17.854,-18.422 -17.906,-17.918 -36.121,-36.11c-39.702,-39.652 -41.916,-36.655 -45.331,-40.086c-11.466,-11.515 -11.046,-11.575 -23.757,-22.113c-2.857,-2.369 -29.952,-24.831 -36.397,-28.771c-1.991,-1.217 -20.495,-12.532 -24.551,-15.746c-38.368,-30.404 -105.829,-66.905 -115.402,-72.086c-2.377,-1.286 -14.075,-7.616 -30.168,-15.22c-83.504,-39.455 -85.308,-34.777 -92.475,-38.352c-20.454,-10.201 -22.688,-5.571 -28.476,-8.847c-17.005,-9.626 -17.893,-6.633 -36.685,-11.992c-33.782,-9.633 -33.18,-11.556 -36.215,-11.832c-23.252,-2.118 -22.689,-4.466 -45.955,-7.182c-42.492,-4.96 -50.947,-11.972 -108.629,-12.423c-4.012,-0.031 -8.263,-0.031 -12.78,0.004Zm118.222,982.257c-4.481,-0.042 -4.085,3.134 -55.641,6.46c-2.205,0.142 -7.016,2.777 -13.27,2.878c-145.184,2.353 -151.203,0.957 -163.984,-2.007c-2.952,-0.685 -31.172,-2.447 -46.044,-6.501c-0.463,-0.126 -34.365,-2.399 -59.105,-9.838c-10.368,-3.118 -11.726,1.444 -20.487,-5.047c-1.808,-1.339 -28.017,-4.196 -55.479,-13.6c-15.953,-5.463 -44.988,-12.387 -49.671,-15.969c-6.775,-5.182 -35.783,-9.494 -49.322,-19.681c-3.692,-2.778 -57.03,-20.959 -72.261,-32.896c-1.658,-1.3 -1.721,-0.906 -23.219,-12.431c-9.887,-5.3 -10.645,-3.475 -19.494,-10.578c-2.007,-1.611 -23.775,-12.59 -25.864,-13.643c-18.714,-9.438 -15.211,-15.717 -39.385,-23.031c-1.809,-0.547 -0.429,-2.481 -18.709,-14.431c-38.232,-24.992 -119.956,-89.752 -154.351,-124.662c-1.879,-1.907 -24.941,-21.716 -31.727,-31.031c-1.082,-1.485 -16.155,-16.876 -17.577,-18.327c-0.507,-0.517 -8.547,-8.727 -9.035,0.591c-0.491,9.368 -0.248,417.488 -0.226,453.791c0.001,2.368 0.979,2.185 3.181,29.425c0.084,1.04 2.662,8.249 2.767,9.881c0.217,3.365 -2.019,9.9 5.935,36.156c1.075,3.549 -0.599,16.894 3.218,29.587c1.862,6.19 5.711,40.256 16.432,72.265c6.203,18.521 2.546,19.518 11.999,36.679c3.814,6.925 -3.419,9.683 36.171,91.963c34.669,72.055 77.239,125.167 85.232,135.141c8.526,10.638 7.886,10.802 19.024,27.662c1.514,2.292 3.955,-0.396 23.978,24.57c4.258,5.31 59.784,59.955 60.71,60.52c15.366,9.372 17.879,18.657 36.17,29.522c2.629,1.562 1.603,2.848 31.121,22.202c1.557,1.021 13.381,8.774 18.503,14.12c3.124,3.261 9.475,2.109 16.343,10.032c3.074,3.547 25.044,14.513 32.292,20.032c2.74,2.086 11.308,1.632 18.294,8.242c4.096,3.875 83.941,43.457 109.469,47.326c7.989,1.211 13.591,8.361 19.316,9.032c5.119,0.6 5.887,0.69 62.715,14.721c13.454,3.322 25.032,8.981 75.62,12.431c3.435,0.234 25.52,8.597 118.125,9.036c19.456,0.092 90.552,-9.317 98.473,-11.626c6.411,-1.87 9.251,1.351 26.122,-4.136c22.516,-7.322 23.587,-2.418 75.702,-18.87c7.75,-2.447 11.056,1.947 20.684,-5.18c12.652,-9.365 16.156,-1.424 28.905,-10.714c3.866,-2.817 23.854,-9.647 25.97,-10.37c65.955,-22.537 177.762,-92.99 246.002,-161.216c84.839,-84.822 89.373,-105.687 108.224,-128.174c1.218,-1.453 -0.706,-2.695 13.114,-19.743c2.056,-2.536 2.504,-10.803 12.616,-20.358c0.289,-0.273 20.894,-38.875 22.702,-42.261c1.994,-3.735 0.922,-4.208 22.124,-48.073c5.826,-12.054 52.468,-135.8 53.848,-207.447c0.074,-3.866 9.198,-12.217 9.198,-151.074c-0,-354.439 -0.033,-354.379 0.271,-364.662c0.326,-11.011 -5.686,-18.104 -10.52,-9.123c-0.353,0.656 -45.22,50.374 -67.374,67.473c-9.003,6.949 -21.422,21.343 -32.826,29.557c-2.176,1.568 -59.753,51.878 -85.238,66.07c-1.85,1.03 -1.152,2.008 -21.741,15.088c-5.92,3.761 -4.982,4.686 -11.157,7.639c-1.718,0.822 -0.233,2.452 -19.681,13.394c-1.657,0.932 -14.159,7.967 -20.217,12.496c-15.165,11.34 -144.08,81.166 -179.621,87.977c-4.959,0.95 -3.331,5.359 -59.252,21.759c-42.716,12.527 -43.018,10.345 -85.427,22.966c-9.61,2.86 -9.799,0.444 -19.702,3.323c-6.69,1.945 -30.32,4.417 -32.97,4.694Zm735.909,1222.069l-1750.988,0c-2.131,-14.899 -1.454,-60.308 -0.291,-64.156c3.432,-11.354 -1.97,-11.317 -0.722,-22.998c1.07,-10.013 2.374,-9.491 3.339,-19.756c0.487,-5.186 2.263,-24.076 33.953,-55.555c2.428,-2.412 31.221,-13.576 35.804,-14.457c2.685,-0.516 1209.112,-0.516 1314.253,-0.516c293.856,0 294.542,-0.805 308.36,5.871c49.951,24.134 44.335,46.265 50.472,54.423c9.553,12.698 -0.717,89.622 5.82,117.144Z" style="fill:#fff;fill-opacity:1;"/></svg>